<svg width="20" height="20" viewBox="0 0 20 20" fill="none" xmlns="http://www.w3.org/2000/svg">
<g clip-path="url(#clip0_2_1046)">
<path d="M18.5732 6.91032C18.4923 6.30235 18.4809 5.25519 19.0456 4.90357C19.0557 4.89712 19.0632 4.88781 19.072 4.87981C19.5337 4.73215 19.8532 4.52491 19.6024 4.24605L12.792 2.194L1.76436 3.72719C1.76436 3.72719 0.501556 3.90769 0.614365 5.86961C0.675604 6.93742 1.01051 7.46183 1.30339 7.71992L0.398476 7.99263C0.147312 8.27149 0.466758 8.47879 0.928499 8.62622C0.937273 8.63445 0.944674 8.6437 0.95494 8.65015C1.51928 9.00207 1.50842 10.0491 1.42725 10.6572C-0.600151 11.2329 0.127615 11.4205 0.127615 11.4205L0.572345 11.5281C0.259524 11.8108 -0.0511481 12.3468 0.00704694 13.3635C0.119916 15.3251 1.15716 15.4604 1.15716 15.4604L8.37359 17.806L19.2659 15.1677C19.2659 15.1677 19.9939 14.9798 17.966 14.4041C17.8845 13.7969 17.8731 12.75 18.4388 12.3972C18.4492 12.3909 18.4567 12.3814 18.4651 12.3736C18.9269 12.2259 19.2461 12.0188 18.9952 11.74L18.5218 11.597C18.8375 11.4066 19.3118 10.909 19.3861 9.61643C19.4374 8.72733 19.2054 8.20661 18.937 7.90006L19.8728 7.6736C19.8728 7.67396 20.6008 7.48607 18.5732 6.91032ZM9.4624 6.88519L11.2941 6.50874L17.4841 5.23669L18.4064 5.047C18.1117 5.58633 18.124 6.32443 18.1728 6.79883C18.1835 6.90614 18.1958 7.00415 18.2077 7.07864L17.1983 7.32963L9.38541 9.27323L9.4624 6.88519ZM1.59425 8.79418L2.51636 8.98386L8.46103 10.2059L8.98037 10.3123L10.5378 10.6324L10.6146 13.0205L2.58464 11.0227L1.79301 10.8259C1.80465 10.7513 1.81694 10.6534 1.8281 10.5458C1.87657 10.0718 1.88916 9.33351 1.59425 8.79418ZM1.23601 5.77519C1.22485 5.25334 1.31784 4.87594 1.50579 4.6841C1.62541 4.56162 1.76657 4.53613 1.86338 4.53613C1.91453 4.53613 1.95136 4.54324 1.95387 4.54324L6.70539 6.09231L9.07599 6.8652L8.99821 9.26994L2.34774 7.40543L1.99678 7.30712C1.98389 7.30348 1.9664 7.30098 1.95291 7.30038C1.92551 7.29841 1.268 7.23789 1.23601 5.77519ZM8.39078 16.7642L1.38952 14.8013C1.37657 14.7975 1.35926 14.795 1.34577 14.7944C1.3179 14.7925 0.660085 14.7321 0.628272 13.2697C0.616931 12.7472 0.710401 12.3702 0.897998 12.1782C1.01791 12.0557 1.15913 12.0302 1.25576 12.0302C1.30704 12.0302 1.34374 12.0371 1.34643 12.0371C1.34643 12.0371 1.34673 12.0371 1.34643 12.0371L8.46807 14.3594L8.39078 16.7642ZM17.565 14.2927C17.576 14.4004 17.5883 14.4982 17.6003 14.5728L8.77779 16.7676L8.85491 14.3795L10.7411 13.9917L11.0196 14.0591L12.0637 13.7198L16.8763 12.7308L17.7989 12.541C17.5039 13.0803 17.5162 13.8187 17.565 14.2927ZM18.051 11.0472C18.0349 11.0476 18.0189 11.0497 18.0038 11.0545L17.3384 11.2408L11.0027 13.0173L10.9252 10.6126L13.0039 9.93456L18.0371 8.2931C18.0378 8.2928 18.3019 8.23413 18.4958 8.43128C18.6834 8.62311 18.7765 9.00052 18.7656 9.52236C18.7327 10.9846 18.0749 11.0453 18.051 11.0472Z" fill="black"/>
</g>
<defs>
<clipPath id="clip0_2_1046">
<rect width="20" height="20" fill="white"/>
</clipPath>
</defs>
</svg>
