<svg width="183" height="243" viewBox="0 0 183 243" fill="none" xmlns="http://www.w3.org/2000/svg">
<mask id="mask0_2_897" style="mask-type:alpha" maskUnits="userSpaceOnUse" x="0" y="0" width="183" height="243">
<rect width="183" height="243" rx="10" fill="#C4C4C4"/>
</mask>
<g mask="url(#mask0_2_897)">
<path d="M7 243C7 243 4.46948 242.918 2.53051 242.631C1.11737 242.426 0 241.606 0 241.606V0.61519C0 0.61519 0.854459 0.328101 2.20188 0.205063C4.17371 0.0410126 7 0 7 0V243Z" fill="url(#paint0_linear_2_897)"/>
<path d="M183 243H7V0H94.9379H183V243Z" fill="url(#paint1_linear_2_897)"/>
<path d="M7.73688 0.0409393H7V242.598H7.73688V0.0409393Z" fill="#F2F2F2"/>
<path d="M6.73688 0.0409393H6V242.598H6.73688V0.0409393Z" fill="#BFBFBF"/>
<path d="M9.79166 0.45032H95.8841H182.099L183 0H95.8841H8.89103L9.79166 0.45032Z" fill="#F2F2F2"/>
<path d="M9.62041 242.107H95.7129H181.928L182.829 242.557H95.7129H8.71978L9.62041 242.107Z" fill="#A6A6A6"/>
</g>
<path d="M40.8429 62.2V69.97C40.6629 70.03 40.4029 70.08 40.0629 70.12C39.7429 70.18 39.3929 70.21 39.0129 70.21C38.2529 70.21 37.7129 70.08 37.3929 69.82C37.0929 69.54 36.9429 69.06 36.9429 68.38V51.79C37.1029 51.75 37.3529 51.7 37.6929 51.64C38.0529 51.58 38.4029 51.55 38.7429 51.55C39.4629 51.55 39.9929 51.68 40.3329 51.94C40.6729 52.2 40.8429 52.68 40.8429 53.38V59.56L48.0429 51.64C49.0029 51.64 49.6929 51.83 50.1129 52.21C50.5529 52.59 50.7729 53.04 50.7729 53.56C50.7729 53.98 50.6629 54.36 50.4429 54.7C50.2429 55.02 49.9329 55.39 49.5129 55.81L44.4429 60.85C46.0029 62.45 47.3729 63.88 48.5529 65.14C49.7329 66.4 50.7329 67.41 51.5529 68.17C51.5329 68.83 51.3129 69.35 50.8929 69.73C50.4929 70.09 50.0029 70.27 49.4229 70.27C48.8429 70.27 48.3529 70.12 47.9529 69.82C47.5529 69.5 47.1629 69.14 46.7829 68.74L40.8429 62.2ZM58.1175 69.97C57.9375 70.01 57.6975 70.06 57.3975 70.12C57.0975 70.18 56.7575 70.21 56.3775 70.21C55.6775 70.21 55.1575 70.08 54.8175 69.82C54.4775 69.56 54.3075 69.1 54.3075 68.44V50.5C54.4675 50.44 54.6975 50.39 54.9975 50.35C55.3175 50.29 55.6675 50.26 56.0475 50.26C56.7475 50.26 57.2675 50.39 57.6075 50.65C57.9475 50.91 58.1175 51.37 58.1175 52.03V56.17C58.5575 55.95 59.0575 55.76 59.6175 55.6C60.1975 55.44 60.8375 55.36 61.5375 55.36C63.3575 55.36 64.8075 55.83 65.8875 56.77C66.9675 57.71 67.5075 59.13 67.5075 61.03V69.97C67.3475 70.01 67.1075 70.06 66.7875 70.12C66.4875 70.18 66.1575 70.21 65.7975 70.21C65.0775 70.21 64.5475 70.08 64.2075 69.82C63.8675 69.56 63.6975 69.1 63.6975 68.44V61.21C63.6975 60.21 63.4375 59.49 62.9175 59.05C62.3975 58.59 61.7175 58.36 60.8775 58.36C60.3375 58.36 59.8375 58.45 59.3775 58.63C58.9175 58.79 58.4975 58.99 58.1175 59.23V69.97ZM85.3376 62.89C85.3376 64.05 85.1576 65.1 84.7976 66.04C84.4576 66.96 83.9676 67.75 83.3276 68.41C82.6876 69.07 81.9176 69.58 81.0176 69.94C80.1176 70.28 79.1076 70.45 77.9876 70.45C76.8676 70.45 75.8576 70.28 74.9576 69.94C74.0576 69.58 73.2876 69.08 72.6476 68.44C72.0076 67.78 71.5076 66.99 71.1476 66.07C70.8076 65.13 70.6376 64.07 70.6376 62.89C70.6376 61.73 70.8076 60.69 71.1476 59.77C71.5076 58.83 72.0076 58.04 72.6476 57.4C73.3076 56.74 74.0876 56.24 74.9876 55.9C75.8876 55.54 76.8876 55.36 77.9876 55.36C79.0876 55.36 80.0876 55.54 80.9876 55.9C81.8876 56.24 82.6576 56.74 83.2976 57.4C83.9576 58.06 84.4576 58.86 84.7976 59.8C85.1576 60.72 85.3376 61.75 85.3376 62.89ZM77.9876 58.36C76.9076 58.36 76.0576 58.76 75.4376 59.56C74.8176 60.34 74.5076 61.45 74.5076 62.89C74.5076 64.35 74.8076 65.47 75.4076 66.25C76.0276 67.03 76.8876 67.42 77.9876 67.42C79.0876 67.42 79.9376 67.03 80.5376 66.25C81.1576 65.45 81.4676 64.33 81.4676 62.89C81.4676 61.45 81.1576 60.34 80.5376 59.56C79.9176 58.76 79.0676 58.36 77.9876 58.36ZM94.1055 67.57C94.6855 67.57 95.2155 67.52 95.6955 67.42C96.1755 67.3 96.5255 67.16 96.7455 67V63.67L93.8355 63.94C93.0355 64.02 92.4255 64.2 92.0055 64.48C91.5855 64.74 91.3755 65.16 91.3755 65.74C91.3755 66.32 91.5855 66.77 92.0055 67.09C92.4455 67.41 93.1455 67.57 94.1055 67.57ZM93.9855 55.36C95.9455 55.36 97.5055 55.78 98.6655 56.62C99.8455 57.46 100.436 58.76 100.436 60.52V67.45C100.436 67.93 100.316 68.31 100.076 68.59C99.8355 68.87 99.5355 69.12 99.1755 69.34C98.6155 69.68 97.9055 69.95 97.0455 70.15C96.1855 70.35 95.2055 70.45 94.1055 70.45C92.1055 70.45 90.5255 70.07 89.3655 69.31C88.2255 68.53 87.6555 67.37 87.6555 65.83C87.6555 64.49 88.0755 63.47 88.9155 62.77C89.7755 62.05 91.0155 61.61 92.6355 61.45L96.7455 61.03V60.49C96.7455 59.73 96.4655 59.17 95.9055 58.81C95.3655 58.45 94.5955 58.27 93.5955 58.27C92.8155 58.27 92.0555 58.37 91.3155 58.57C90.5755 58.75 89.9155 58.98 89.3355 59.26C89.1155 59.1 88.9255 58.89 88.7655 58.63C88.6255 58.35 88.5555 58.05 88.5555 57.73C88.5555 57.33 88.6455 57.01 88.8255 56.77C89.0255 56.51 89.3355 56.28 89.7555 56.08C90.3355 55.84 90.9955 55.66 91.7355 55.54C92.4755 55.42 93.2255 55.36 93.9855 55.36ZM114.045 69.97C113.865 70.01 113.625 70.06 113.325 70.12C113.025 70.18 112.685 70.21 112.305 70.21C111.605 70.21 111.085 70.08 110.745 69.82C110.405 69.56 110.235 69.1 110.235 68.44V50.5C110.395 50.44 110.625 50.39 110.925 50.35C111.245 50.29 111.595 50.26 111.975 50.26C112.675 50.26 113.195 50.39 113.535 50.65C113.875 50.91 114.045 51.37 114.045 52.03V56.17C114.485 55.95 114.985 55.76 115.545 55.6C116.125 55.44 116.765 55.36 117.465 55.36C119.285 55.36 120.735 55.83 121.815 56.77C122.895 57.71 123.435 59.13 123.435 61.03V69.97C123.275 70.01 123.035 70.06 122.715 70.12C122.415 70.18 122.085 70.21 121.725 70.21C121.005 70.21 120.475 70.08 120.135 69.82C119.795 69.56 119.625 69.1 119.625 68.44V61.21C119.625 60.21 119.365 59.49 118.845 59.05C118.325 58.59 117.645 58.36 116.805 58.36C116.265 58.36 115.765 58.45 115.305 58.63C114.845 58.79 114.425 58.99 114.045 59.23V69.97ZM141.265 62.89C141.265 64.05 141.085 65.1 140.725 66.04C140.385 66.96 139.895 67.75 139.255 68.41C138.615 69.07 137.845 69.58 136.945 69.94C136.045 70.28 135.035 70.45 133.915 70.45C132.795 70.45 131.785 70.28 130.885 69.94C129.985 69.58 129.215 69.08 128.575 68.44C127.935 67.78 127.435 66.99 127.075 66.07C126.735 65.13 126.565 64.07 126.565 62.89C126.565 61.73 126.735 60.69 127.075 59.77C127.435 58.83 127.935 58.04 128.575 57.4C129.235 56.74 130.015 56.24 130.915 55.9C131.815 55.54 132.815 55.36 133.915 55.36C135.015 55.36 136.015 55.54 136.915 55.9C137.815 56.24 138.585 56.74 139.225 57.4C139.885 58.06 140.385 58.86 140.725 59.8C141.085 60.72 141.265 61.75 141.265 62.89ZM133.915 58.36C132.835 58.36 131.985 58.76 131.365 59.56C130.745 60.34 130.435 61.45 130.435 62.89C130.435 64.35 130.735 65.47 131.335 66.25C131.955 67.03 132.815 67.42 133.915 67.42C135.015 67.42 135.865 67.03 136.465 66.25C137.085 65.45 137.395 64.33 137.395 62.89C137.395 61.45 137.085 60.34 136.465 59.56C135.845 58.76 134.995 58.36 133.915 58.36ZM136.015 74.08C136.015 74.66 135.815 75.15 135.415 75.55C135.035 75.95 134.525 76.15 133.885 76.15C133.245 76.15 132.725 75.95 132.325 75.55C131.945 75.15 131.755 74.66 131.755 74.08C131.755 73.48 131.945 72.98 132.325 72.58C132.725 72.2 133.245 72.01 133.885 72.01C134.525 72.01 135.035 72.2 135.415 72.58C135.815 72.98 136.015 73.48 136.015 74.08ZM151.715 58.39C151.115 58.39 150.555 58.49 150.035 58.69C149.535 58.89 149.095 59.18 148.715 59.56C148.355 59.94 148.065 60.41 147.845 60.97C147.625 61.53 147.515 62.18 147.515 62.92C147.515 64.4 147.905 65.52 148.685 66.28C149.465 67.02 150.475 67.39 151.715 67.39C152.415 67.39 153.015 67.3 153.515 67.12C154.035 66.92 154.495 66.71 154.895 66.49C155.175 66.69 155.395 66.92 155.555 67.18C155.735 67.44 155.825 67.74 155.825 68.08C155.825 68.76 155.425 69.32 154.625 69.76C153.825 70.2 152.745 70.42 151.385 70.42C150.245 70.42 149.195 70.27 148.235 69.97C147.295 69.65 146.485 69.18 145.805 68.56C145.125 67.92 144.595 67.13 144.215 66.19C143.855 65.25 143.675 64.16 143.675 62.92C143.675 61.66 143.875 60.56 144.275 59.62C144.675 58.66 145.215 57.87 145.895 57.25C146.595 56.61 147.405 56.14 148.325 55.84C149.245 55.52 150.225 55.36 151.265 55.36C152.605 55.36 153.675 55.6 154.475 56.08C155.275 56.54 155.675 57.11 155.675 57.79C155.675 58.11 155.585 58.4 155.405 58.66C155.245 58.92 155.055 59.13 154.835 59.29C154.435 59.07 153.985 58.87 153.485 58.69C153.005 58.49 152.415 58.39 151.715 58.39ZM45.7828 109.42C45.4428 109.42 45.1328 109.34 44.8528 109.18C44.5728 109.04 44.2828 108.81 43.9828 108.49L42.9628 107.47C42.2028 108.15 41.3228 108.66 40.3228 109C39.3228 109.32 38.2728 109.48 37.1728 109.48C36.0728 109.48 35.0828 109.33 34.2028 109.03C33.3228 108.73 32.5728 108.31 31.9528 107.77C31.3528 107.23 30.8928 106.59 30.5728 105.85C30.2528 105.11 30.0928 104.3 30.0928 103.42C30.0928 102.02 30.4628 100.87 31.2028 99.97C31.9628 99.07 32.8928 98.4 33.9928 97.96C33.4728 97.32 33.1128 96.75 32.9128 96.25C32.7328 95.73 32.6428 95.21 32.6428 94.69C32.6428 94.07 32.7528 93.5 32.9728 92.98C33.2128 92.44 33.5528 91.98 33.9928 91.6C34.4528 91.2 35.0028 90.89 35.6428 90.67C36.2828 90.45 37.0228 90.34 37.8628 90.34C39.0228 90.34 39.8628 90.53 40.3828 90.91C40.9228 91.29 41.1928 91.77 41.1928 92.35C41.1928 92.93 40.9628 93.42 40.5028 93.82C40.2228 93.68 39.9028 93.57 39.5428 93.49C39.2028 93.39 38.8328 93.34 38.4328 93.34C37.7928 93.34 37.2828 93.49 36.9028 93.79C36.5228 94.09 36.3328 94.52 36.3328 95.08C36.3328 95.54 36.4628 95.96 36.7228 96.34C37.0028 96.7 37.4028 97.14 37.9228 97.66L42.6328 102.4C42.8328 101.78 42.9728 101.09 43.0528 100.33C43.1528 99.57 43.2028 98.8 43.2028 98.02C43.7628 97.78 44.3028 97.66 44.8228 97.66C45.5028 97.66 45.9628 97.85 46.2028 98.23C46.4628 98.61 46.5928 99.12 46.5928 99.76C46.5928 100.6 46.4728 101.48 46.2328 102.4C46.0128 103.3 45.6728 104.16 45.2128 104.98L47.7028 107.47C47.6428 108.05 47.4328 108.52 47.0728 108.88C46.7328 109.24 46.3028 109.42 45.7828 109.42ZM37.3528 106.48C37.8128 106.48 38.3528 106.4 38.9728 106.24C39.5928 106.06 40.1928 105.72 40.7728 105.22L35.9428 100.27C35.3428 100.47 34.8228 100.83 34.3828 101.35C33.9428 101.85 33.7228 102.49 33.7228 103.27C33.7228 104.21 34.0328 104.98 34.6528 105.58C35.2928 106.18 36.1928 106.48 37.3528 106.48ZM69.5562 93.13V106.24C69.5562 106.7 69.4562 107.07 69.2562 107.35C69.0562 107.63 68.7562 107.9 68.3562 108.16C67.8562 108.48 67.1962 108.77 66.3762 109.03C65.5562 109.31 64.6062 109.45 63.5262 109.45C61.1262 109.45 59.2162 108.84 57.7962 107.62C56.3962 106.38 55.6962 104.49 55.6962 101.95C55.6962 100.63 55.8862 99.5 56.2662 98.56C56.6462 97.6 57.1562 96.81 57.7962 96.19C58.4562 95.57 59.2262 95.11 60.1062 94.81C60.9862 94.51 61.9362 94.36 62.9562 94.36C63.4962 94.36 64.0062 94.42 64.4862 94.54C64.9662 94.64 65.3962 94.77 65.7762 94.93V93.13H63.1662C63.0862 93.01 63.0062 92.85 62.9262 92.65C62.8662 92.45 62.8362 92.23 62.8362 91.99C62.8362 91.59 62.9262 91.3 63.1062 91.12C63.3062 90.92 63.5662 90.82 63.8862 90.82H65.7762V89.02C65.9362 88.96 66.1662 88.91 66.4662 88.87C66.7862 88.81 67.1262 88.78 67.4862 88.78C68.2062 88.78 68.7262 88.91 69.0462 89.17C69.3862 89.43 69.5562 89.89 69.5562 90.55V90.82H71.2962C71.3562 90.94 71.4162 91.1 71.4762 91.3C71.5562 91.5 71.5962 91.71 71.5962 91.93C71.5962 92.73 71.2462 93.13 70.5462 93.13H69.5562ZM65.7762 97.99C65.4762 97.81 65.1262 97.66 64.7262 97.54C64.3262 97.42 63.8962 97.36 63.4362 97.36C62.3162 97.36 61.3862 97.72 60.6462 98.44C59.9062 99.16 59.5362 100.34 59.5362 101.98C59.5362 103.52 59.8862 104.65 60.5862 105.37C61.3062 106.07 62.2762 106.42 63.4962 106.42C64.0162 106.42 64.4562 106.36 64.8162 106.24C65.1962 106.12 65.5162 105.98 65.7762 105.82V97.99ZM87.5641 101.89C87.5641 103.05 87.3841 104.1 87.0241 105.04C86.6841 105.96 86.1941 106.75 85.5541 107.41C84.9141 108.07 84.1441 108.58 83.2441 108.94C82.3441 109.28 81.3341 109.45 80.2141 109.45C79.0941 109.45 78.0841 109.28 77.1841 108.94C76.2841 108.58 75.5141 108.08 74.8741 107.44C74.2341 106.78 73.7341 105.99 73.3741 105.07C73.0341 104.13 72.8641 103.07 72.8641 101.89C72.8641 100.73 73.0341 99.69 73.3741 98.77C73.7341 97.83 74.2341 97.04 74.8741 96.4C75.5341 95.74 76.3141 95.24 77.2141 94.9C78.1141 94.54 79.1141 94.36 80.2141 94.36C81.3741 94.36 82.4241 94.56 83.3641 94.96C84.3241 95.36 85.1241 95.92 85.7641 96.64C86.0441 96.42 86.2641 96.12 86.4241 95.74C86.6041 95.36 86.6941 94.87 86.6941 94.27V93.25C86.9141 93.15 87.1341 93.07 87.3541 93.01C87.5741 92.93 87.8441 92.89 88.1641 92.89C88.6241 92.89 89.0241 93.01 89.3641 93.25C89.7041 93.49 89.8741 93.89 89.8741 94.45V94.72C89.8741 95.86 89.6141 96.8 89.0941 97.54C88.5741 98.26 87.9241 98.79 87.1441 99.13C87.4241 100.01 87.5641 100.93 87.5641 101.89ZM80.2141 97.36C79.1341 97.36 78.2841 97.76 77.6641 98.56C77.0441 99.34 76.7341 100.45 76.7341 101.89C76.7341 103.35 77.0341 104.47 77.6341 105.25C78.2541 106.03 79.1141 106.42 80.2141 106.42C81.3141 106.42 82.1641 106.03 82.7641 105.25C83.3841 104.45 83.6941 103.33 83.6941 101.89C83.6941 100.45 83.3841 99.34 82.7641 98.56C82.1441 97.76 81.2941 97.36 80.2141 97.36ZM76.3141 89.8C76.2741 89.6 76.2541 89.42 76.2541 89.26C76.2541 88.72 76.4141 88.3 76.7341 88C77.0541 87.68 77.4541 87.52 77.9341 87.52C78.5741 87.52 79.1241 87.79 79.5841 88.33L82.2541 91.69C82.2141 92.21 82.0341 92.61 81.7141 92.89C81.4141 93.15 81.0741 93.28 80.6941 93.28C80.3541 93.28 80.0741 93.23 79.8541 93.13C79.6341 93.03 79.4141 92.87 79.1941 92.65L76.3141 89.8ZM92.1319 94.9C92.2919 94.86 92.5219 94.81 92.8219 94.75C93.1419 94.69 93.4819 94.66 93.8419 94.66C94.5619 94.66 95.0819 94.79 95.4019 95.05C95.7419 95.31 95.9119 95.77 95.9119 96.43V108.97C95.7519 109.01 95.5119 109.06 95.1919 109.12C94.8919 109.18 94.5619 109.21 94.2019 109.21C93.4819 109.21 92.9519 109.08 92.6119 108.82C92.2919 108.56 92.1319 108.1 92.1319 107.44V94.9ZM91.8319 90.55C91.8319 89.97 92.0319 89.48 92.4319 89.08C92.8519 88.66 93.3819 88.45 94.0219 88.45C94.6619 88.45 95.1819 88.66 95.5819 89.08C95.9819 89.48 96.1819 89.97 96.1819 90.55C96.1819 91.15 95.9819 91.66 95.5819 92.08C95.1819 92.48 94.6619 92.68 94.0219 92.68C93.3819 92.68 92.8519 92.48 92.4319 92.08C92.0319 91.66 91.8319 91.15 91.8319 90.55ZM116.909 104.98C116.909 106.38 116.389 107.48 115.349 108.28C114.309 109.06 112.789 109.45 110.789 109.45C109.969 109.45 109.219 109.39 108.539 109.27C107.879 109.15 107.299 108.98 106.799 108.76C106.319 108.52 105.939 108.24 105.659 107.92C105.399 107.58 105.269 107.21 105.269 106.81C105.269 106.43 105.349 106.1 105.509 105.82C105.689 105.54 105.919 105.31 106.199 105.13C106.759 105.49 107.399 105.81 108.119 106.09C108.859 106.37 109.709 106.51 110.669 106.51C111.489 106.51 112.109 106.38 112.529 106.12C112.949 105.84 113.159 105.46 113.159 104.98C113.159 104.16 112.559 103.62 111.359 103.36L109.679 102.97C108.199 102.63 107.099 102.12 106.379 101.44C105.679 100.76 105.329 99.85 105.329 98.71C105.329 97.41 105.849 96.36 106.889 95.56C107.929 94.74 109.389 94.33 111.269 94.33C111.989 94.33 112.649 94.39 113.249 94.51C113.869 94.61 114.399 94.77 114.839 94.99C115.299 95.19 115.649 95.44 115.889 95.74C116.149 96.02 116.279 96.35 116.279 96.73C116.279 97.09 116.199 97.41 116.039 97.69C115.879 97.95 115.689 98.16 115.469 98.32C115.289 98.2 115.049 98.08 114.749 97.96C114.469 97.84 114.149 97.73 113.789 97.63C113.449 97.53 113.079 97.45 112.679 97.39C112.299 97.31 111.919 97.27 111.539 97.27C110.759 97.27 110.149 97.4 109.709 97.66C109.269 97.9 109.049 98.25 109.049 98.71C109.049 99.05 109.169 99.33 109.409 99.55C109.669 99.77 110.109 99.95 110.729 100.09L112.199 100.45C113.859 100.83 115.059 101.39 115.799 102.13C116.539 102.85 116.909 103.8 116.909 104.98ZM132.798 84.19C133.438 84.21 133.918 84.36 134.238 84.64C134.558 84.92 134.718 85.23 134.718 85.57C134.718 85.87 134.638 86.14 134.478 86.38C134.318 86.6 134.098 86.85 133.818 87.13L131.898 89.17C131.378 89.17 130.958 89.05 130.638 88.81C130.338 88.55 130.188 88.26 130.188 87.94C130.188 87.76 130.218 87.59 130.278 87.43C130.358 87.27 130.488 87.08 130.668 86.86L132.798 84.19ZM134.088 101.89C134.088 103.05 133.908 104.1 133.548 105.04C133.208 105.96 132.718 106.75 132.078 107.41C131.438 108.07 130.668 108.58 129.768 108.94C128.868 109.28 127.858 109.45 126.738 109.45C125.618 109.45 124.608 109.28 123.708 108.94C122.808 108.58 122.038 108.08 121.398 107.44C120.758 106.78 120.258 105.99 119.898 105.07C119.558 104.13 119.388 103.07 119.388 101.89C119.388 100.73 119.558 99.69 119.898 98.77C120.258 97.83 120.758 97.04 121.398 96.4C122.058 95.74 122.838 95.24 123.738 94.9C124.638 94.54 125.638 94.36 126.738 94.36C127.838 94.36 128.838 94.54 129.738 94.9C130.638 95.24 131.408 95.74 132.048 96.4C132.708 97.06 133.208 97.86 133.548 98.8C133.908 99.72 134.088 100.75 134.088 101.89ZM126.738 97.36C125.658 97.36 124.808 97.76 124.188 98.56C123.568 99.34 123.258 100.45 123.258 101.89C123.258 103.35 123.558 104.47 124.158 105.25C124.778 106.03 125.638 106.42 126.738 106.42C127.838 106.42 128.688 106.03 129.288 105.25C129.908 104.45 130.218 103.33 130.218 101.89C130.218 100.45 129.908 99.34 129.288 98.56C128.668 97.76 127.818 97.36 126.738 97.36ZM126.738 90.34C126.238 90.92 125.798 91.42 125.418 91.84C125.038 92.24 124.638 92.69 124.218 93.19C123.638 93.17 123.168 93.03 122.808 92.77C122.468 92.49 122.298 92.14 122.298 91.72C122.298 91.4 122.378 91.13 122.538 90.91C122.718 90.69 122.968 90.41 123.288 90.07L124.698 88.57C125.018 88.27 125.338 88.04 125.658 87.88C125.978 87.7 126.358 87.61 126.798 87.61C127.218 87.61 127.588 87.69 127.908 87.85C128.248 87.99 128.618 88.3 129.018 88.78L131.328 91.6C131.328 92.02 131.208 92.38 130.968 92.68C130.728 92.98 130.358 93.13 129.858 93.13C129.518 93.13 129.228 93.05 128.988 92.89C128.768 92.71 128.548 92.48 128.328 92.2L126.738 90.34ZM146.607 99.85C146.607 98.99 146.357 98.36 145.857 97.96C145.377 97.56 144.717 97.36 143.877 97.36C143.297 97.36 142.757 97.43 142.257 97.57C141.777 97.71 141.357 97.89 140.997 98.11V108.97C140.817 109.01 140.577 109.06 140.277 109.12C139.977 109.18 139.637 109.21 139.257 109.21C138.557 109.21 138.037 109.08 137.697 108.82C137.357 108.56 137.187 108.1 137.187 107.44V97.81C137.187 97.33 137.287 96.94 137.487 96.64C137.687 96.34 137.997 96.05 138.417 95.77C138.997 95.37 139.767 95.04 140.727 94.78C141.687 94.5 142.747 94.36 143.907 94.36C145.967 94.36 147.557 94.82 148.677 95.74C149.817 96.64 150.387 97.97 150.387 99.73V108.97C150.227 109.01 149.987 109.06 149.667 109.12C149.367 109.18 149.037 109.21 148.677 109.21C147.957 109.21 147.427 109.08 147.087 108.82C146.767 108.56 146.607 108.1 146.607 107.44V99.85ZM163.358 107.77C162.958 107.97 162.488 108.14 161.948 108.28C161.428 108.42 160.818 108.49 160.118 108.49C159.218 108.49 158.368 108.37 157.568 108.13C156.768 107.87 156.068 107.46 155.468 106.9C154.868 106.34 154.388 105.62 154.028 104.74C153.688 103.84 153.518 102.75 153.518 101.47C153.518 100.31 153.688 99.29 154.028 98.41C154.388 97.51 154.888 96.76 155.528 96.16C156.188 95.56 156.968 95.11 157.868 94.81C158.768 94.51 159.768 94.36 160.868 94.36C161.908 94.36 162.858 94.49 163.718 94.75C164.598 95.01 165.298 95.31 165.818 95.65C166.178 95.89 166.458 96.16 166.658 96.46C166.878 96.76 166.988 97.14 166.988 97.6V109.18C166.988 110.2 166.798 111.08 166.418 111.82C166.058 112.56 165.558 113.16 164.918 113.62C164.278 114.1 163.528 114.45 162.668 114.67C161.808 114.89 160.878 115 159.878 115C158.838 115 157.928 114.9 157.148 114.7C156.388 114.52 155.818 114.31 155.438 114.07C154.778 113.65 154.448 113.09 154.448 112.39C154.448 112.01 154.528 111.68 154.688 111.4C154.848 111.12 155.038 110.91 155.258 110.77C155.778 111.09 156.408 111.37 157.148 111.61C157.888 111.85 158.678 111.97 159.518 111.97C160.718 111.97 161.658 111.74 162.338 111.28C163.018 110.82 163.358 110.08 163.358 109.06V107.77ZM160.748 105.55C161.328 105.55 161.818 105.47 162.218 105.31C162.638 105.15 162.998 104.96 163.298 104.74V97.96C163.018 97.8 162.688 97.66 162.308 97.54C161.948 97.42 161.508 97.36 160.988 97.36C159.888 97.36 158.998 97.7 158.318 98.38C157.658 99.04 157.328 100.07 157.328 101.47C157.328 102.23 157.408 102.87 157.568 103.39C157.748 103.91 157.988 104.33 158.288 104.65C158.608 104.97 158.978 105.2 159.398 105.34C159.818 105.48 160.268 105.55 160.748 105.55Z" fill="#0037A0"/>
<g clip-path="url(#clip0_2_897)">
<path d="M124.462 168.713C124.318 168.66 124.222 168.525 124.219 168.372L124.217 168.278V162.828L125.248 158.467C125.446 157.631 124.812 156.829 123.952 156.829H107.745C106.886 156.829 106.252 157.631 106.449 158.467L107.481 162.828V168.278C107.481 168.435 107.381 168.574 107.233 168.628C97.5723 172.115 90.6724 181.378 90.7056 192.249C90.7479 206.057 101.923 217.195 115.73 217.195C129.551 217.195 140.754 205.991 140.754 192.171C140.754 181.422 133.977 172.257 124.462 168.713Z" fill="#C8EFFD"/>
<path d="M95.5449 195.744C95.5136 185.551 101.578 176.771 110.298 172.841C111.521 172.29 112.32 171.088 112.32 169.747V167.382C112.32 166.678 112.238 165.977 112.076 165.292L112.033 165.11C111.455 162.666 113.309 160.324 115.819 160.324H124.809L125.248 158.467C125.446 157.631 124.811 156.829 123.952 156.829H107.745C106.886 156.829 106.252 157.631 106.449 158.467L107.48 162.828V168.278C107.48 168.435 107.381 168.574 107.233 168.627C97.5721 172.115 90.6722 181.378 90.7054 192.249C90.7342 201.655 95.9298 209.821 103.604 214.072C98.6656 209.519 95.5672 203.001 95.5449 195.744Z" fill="#9BE5FB"/>
<path d="M106.271 190.012L110.355 187.99C114.927 185.728 120.272 185.63 124.923 187.725C127.439 188.858 130.165 189.353 132.869 189.203L134.191 189.034C134.816 188.953 135.384 189.411 135.436 190.039C135.481 190.578 135.504 191.121 135.504 191.669C135.504 201.995 127.499 210.487 117.369 211.265H101.689V190.367L106.271 190.012Z" fill="#6EF5C2"/>
<path d="M120.09 210.862C120.389 208.682 119.907 206.449 118.654 204.498L108.608 188.855L106.271 190.012L101.689 190.366V211.265H117.369C118.296 211.194 119.204 211.058 120.09 210.862Z" fill="#05F2A7"/>
<path d="M119.755 214.571C121.595 211.202 121.455 207.261 119.38 204.031L99.521 173.107C94.109 177.713 90.6822 184.58 90.7057 192.249C90.7481 206.057 101.923 217.195 115.73 217.195C116.437 217.195 117.136 217.164 117.828 217.107C118.579 216.382 119.23 215.532 119.755 214.571Z" fill="#9BE5FB"/>
<path d="M120.988 210.641C121.223 208.369 120.684 206.06 119.38 204.031L109.387 188.47L106.271 190.012L101.689 190.367V211.265H117.369C118.611 211.17 119.821 210.958 120.988 210.641Z" fill="#13E29D"/>
<path d="M116.473 205.898C119.415 210.478 116.126 216.498 110.685 216.498H61.7398C56.2982 216.498 53.0091 210.478 55.951 205.898L76.1735 174.409C76.5454 173.83 76.7431 173.156 76.7431 172.468V154.762H95.6814V172.468C95.6814 173.156 95.879 173.83 96.2509 174.409L116.473 205.898Z" fill="#DFF6FD"/>
<path d="M89.1888 157.252V156.118H76.7429V172.468C76.7429 173.156 76.5451 173.83 76.1733 174.409L55.951 205.898C53.0091 210.478 56.2982 216.498 61.7397 216.498H70.0415C67.3501 214.452 66.3243 210.509 68.3985 207.281L88.6208 175.791C88.9928 175.212 89.1904 174.538 89.1904 173.85V157.252H89.1888V157.252Z" fill="#C8EFFD"/>
<path d="M112.113 208.699C112.586 209.436 112.355 210.101 112.175 210.431C111.994 210.761 111.56 211.316 110.684 211.316H61.7398C60.8639 211.316 60.4303 210.761 60.2489 210.431C60.0693 210.101 59.8378 209.436 60.3111 208.699L75.5568 184.962C75.9089 184.414 76.5171 184.086 77.1685 184.087C79.2997 184.089 81.4268 184.423 83.4714 185.087V185.089C87.3771 186.358 91.5487 186.418 95.4515 185.298C96.2656 185.065 97.137 185.38 97.5946 186.093L112.113 208.699Z" fill="#FD9BA1"/>
<path d="M112.113 208.699C112.586 209.436 112.355 210.101 112.175 210.431C111.994 210.761 111.56 211.316 110.684 211.316H61.7398C60.8639 211.316 60.4303 210.761 60.2489 210.431C60.0693 210.101 59.8378 209.436 60.3111 208.699L64.7922 201.723L72.4138 199.916C76.0709 199.049 79.8973 199.206 83.4714 200.369C85.5357 201.039 87.6744 201.372 89.8078 201.372C92.7238 201.372 95.6294 200.752 98.3242 199.519L104.282 196.795L104.414 196.71L112.113 208.699Z" fill="#FD828A"/>
<path d="M68.3987 207.281L82.7849 184.879C80.9526 184.354 79.0625 184.089 77.1687 184.087C76.5173 184.086 75.909 184.414 75.557 184.962L60.3111 208.699C59.8378 209.436 60.0693 210.101 60.2489 210.431C60.4303 210.761 60.8639 211.316 61.7398 211.316H67.3064C67.239 209.967 67.5721 208.567 68.3987 207.281Z" fill="#FD828A"/>
<path d="M68.3987 207.281L73.2413 199.74C72.9647 199.793 72.6888 199.851 72.414 199.916L64.7924 201.723L60.3113 208.699C59.838 209.436 60.0694 210.101 60.2491 210.431C60.4305 210.761 60.8641 211.316 61.7399 211.316H67.3064C67.239 209.967 67.5721 208.567 68.3987 207.281Z" fill="#FD6773"/>
<path d="M95.2996 157.179H77.125C75.7655 157.179 74.6633 156.077 74.6633 154.718C74.6633 153.358 75.7655 152.256 77.125 152.256H95.2996C96.6591 152.256 97.7613 153.358 97.7613 154.718C97.7613 156.077 96.6591 157.179 95.2996 157.179Z" fill="#9BE5FB"/>
<path d="M122.774 201.461C124.851 201.461 126.534 199.778 126.534 197.701C126.534 195.624 124.851 193.94 122.774 193.94C120.697 193.94 119.013 195.624 119.013 197.701C119.013 199.778 120.697 201.461 122.774 201.461Z" fill="#13E29D"/>
<path d="M81.2932 195.156C82.851 195.156 84.1139 193.894 84.1139 192.336C84.1139 190.778 82.851 189.515 81.2932 189.515C79.7354 189.515 78.4726 190.778 78.4726 192.336C78.4726 193.894 79.7354 195.156 81.2932 195.156Z" fill="#FD828A"/>
<path d="M86.2122 146.516C88.4846 146.516 90.3267 144.674 90.3267 142.401C90.3267 140.129 88.4846 138.287 86.2122 138.287C83.9398 138.287 82.0977 140.129 82.0977 142.401C82.0977 144.674 83.9398 146.516 86.2122 146.516Z" fill="#FD9BA1"/>
<path d="M115.885 150.456C118.158 150.456 120 148.614 120 146.341C120 144.069 118.158 142.227 115.885 142.227C113.613 142.227 111.771 144.069 111.771 146.341C111.771 148.614 113.613 150.456 115.885 150.456Z" fill="#9DF8D3"/>
<path d="M75.7486 136.404C77.2891 136.404 78.5379 135.155 78.5379 133.615C78.5379 132.074 77.2891 130.825 75.7486 130.825C74.208 130.825 72.9592 132.074 72.9592 133.615C72.9592 135.155 74.208 136.404 75.7486 136.404Z" fill="#FD9BA1"/>
</g>
<path d="M80.856 23.3507L78.312 14.9507H79.332L80.952 20.4827C81.04 20.7787 81.112 21.0507 81.168 21.2987C81.232 21.5467 81.288 21.7907 81.336 22.0307C81.408 21.7827 81.472 21.5747 81.528 21.4067C81.584 21.2307 81.636 21.0707 81.684 20.9267C81.74 20.7827 81.804 20.6187 81.876 20.4347L83.292 16.8587H84.18L85.62 20.4827C85.732 20.7547 85.828 21.0107 85.908 21.2507C85.996 21.4827 86.08 21.7347 86.16 22.0067C86.2 21.8147 86.232 21.6587 86.256 21.5387C86.28 21.4107 86.312 21.2707 86.352 21.1187C86.4 20.9587 86.468 20.7267 86.556 20.4227L88.176 14.9507H89.196L86.64 23.3507H85.86L83.7 18.2267L81.624 23.3507H80.856ZM90.9483 15.7307C90.7243 15.7307 90.5523 15.6747 90.4323 15.5627C90.3123 15.4427 90.2523 15.2787 90.2523 15.0707C90.2523 14.8707 90.3123 14.7107 90.4323 14.5907C90.5523 14.4707 90.7243 14.4107 90.9483 14.4107C91.1643 14.4107 91.3323 14.4707 91.4523 14.5907C91.5723 14.7027 91.6323 14.8627 91.6323 15.0707C91.6323 15.2707 91.5723 15.4307 91.4523 15.5507C91.3323 15.6707 91.1643 15.7307 90.9483 15.7307ZM90.4923 23.3507V17.0747H91.4163V23.3507H90.4923ZM93.2674 23.3507V14.4707H94.1794V23.3507H93.2674ZM96.5265 15.7307C96.3025 15.7307 96.1305 15.6747 96.0105 15.5627C95.8905 15.4427 95.8305 15.2787 95.8305 15.0707C95.8305 14.8707 95.8905 14.7107 96.0105 14.5907C96.1305 14.4707 96.3025 14.4107 96.5265 14.4107C96.7425 14.4107 96.9105 14.4707 97.0305 14.5907C97.1505 14.7027 97.2105 14.8627 97.2105 15.0707C97.2105 15.2707 97.1505 15.4307 97.0305 15.5507C96.9105 15.6707 96.7425 15.7307 96.5265 15.7307ZM96.0705 23.3507V17.0747H96.9945V23.3507H96.0705ZM101.27 23.4707C100.726 23.4707 100.234 23.3307 99.7936 23.0507C99.3536 22.7627 99.0056 22.3747 98.7496 21.8867C98.4936 21.3907 98.3656 20.8307 98.3656 20.2067C98.3656 19.5747 98.4976 19.0147 98.7616 18.5267C99.0256 18.0307 99.3816 17.6427 99.8296 17.3627C100.278 17.0827 100.778 16.9427 101.33 16.9427C101.834 16.9427 102.282 17.0587 102.674 17.2907C103.074 17.5227 103.378 17.8227 103.586 18.1907L103.61 17.0747H104.522V23.3507H103.598V22.2347C103.374 22.5867 103.054 22.8827 102.638 23.1227C102.222 23.3547 101.766 23.4707 101.27 23.4707ZM101.474 22.5947C101.89 22.5947 102.262 22.4947 102.59 22.2947C102.918 22.0867 103.174 21.8027 103.358 21.4427C103.55 21.0827 103.646 20.6667 103.646 20.1947C103.646 19.7387 103.55 19.3307 103.358 18.9707C103.174 18.6107 102.918 18.3307 102.59 18.1307C102.262 17.9227 101.89 17.8187 101.474 17.8187C101.05 17.8187 100.674 17.9227 100.346 18.1307C100.026 18.3307 99.7736 18.6107 99.5896 18.9707C99.4056 19.3307 99.3136 19.7387 99.3136 20.1947C99.3136 20.6587 99.4056 21.0747 99.5896 21.4427C99.7736 21.8027 100.026 22.0867 100.346 22.2947C100.674 22.4947 101.05 22.5947 101.474 22.5947ZM106.251 23.3507V17.0747H107.163L107.175 18.1547C107.383 17.7947 107.679 17.5067 108.063 17.2907C108.447 17.0667 108.863 16.9547 109.311 16.9547C109.759 16.9547 110.139 17.0587 110.451 17.2667C110.771 17.4747 111.011 17.8307 111.171 18.3347C111.291 18.0867 111.467 17.8587 111.699 17.6507C111.931 17.4427 112.195 17.2747 112.491 17.1467C112.795 17.0187 113.115 16.9547 113.451 16.9547C114.115 16.9547 114.619 17.1707 114.963 17.6027C115.315 18.0267 115.491 18.6827 115.491 19.5707V23.3507H114.567V19.6187C114.567 19.0027 114.451 18.5507 114.219 18.2627C113.987 17.9667 113.639 17.8187 113.175 17.8187C112.815 17.8187 112.495 17.8987 112.215 18.0587C111.935 18.2187 111.715 18.4307 111.555 18.6947C111.403 18.9587 111.327 19.2467 111.327 19.5587V23.3507H110.403V19.6067C110.403 18.4147 109.939 17.8187 109.011 17.8187C108.659 17.8187 108.343 17.8987 108.063 18.0587C107.783 18.2107 107.563 18.4187 107.403 18.6827C107.251 18.9467 107.175 19.2347 107.175 19.5467V23.3507H106.251Z" fill="black"/>
<defs>
<linearGradient id="paint0_linear_2_897" x1="-0.00538967" y1="121.512" x2="7.00417" y2="121.512" gradientUnits="userSpaceOnUse">
<stop stop-color="#6DE0FF"/>
<stop offset="1" stop-color="#2B99FF"/>
</linearGradient>
<linearGradient id="paint1_linear_2_897" x1="170.089" y1="250.401" x2="21.9319" y2="-8.52936" gradientUnits="userSpaceOnUse">
<stop stop-color="#2896FF"/>
<stop offset="1" stop-color="#6EE1FF"/>
</linearGradient>
<clipPath id="clip0_2_897">
<rect width="86.37" height="86.37" fill="white" transform="translate(54.6163 130.825)"/>
</clipPath>
</defs>
</svg>
