<svg width="18" height="18" viewBox="0 0 18 18" fill="none" xmlns="http://www.w3.org/2000/svg">
<g clip-path="url(#clip0_2_1015)">
<rect x="5" y="1" width="11.6" height="13" fill="#FF9F00"/>
<path d="M15.8727 9.56296C16.261 9.56296 16.5758 9.24819 16.5758 8.85987V0.704071C16.5758 0.315756 16.261 0.000984321 15.8727 0.000984321H4.95941C4.9528 0.000808549 4.94633 0 4.93969 0C4.93304 0 4.92658 0.000808549 4.91997 0.000984321H3.53351C2.37047 0.000984321 1.42426 0.947198 1.42426 2.11024V15.8907C1.42426 17.0538 2.37047 18 3.53351 18H15.8727C16.261 18 16.5758 17.6852 16.5758 17.2969C16.5758 16.9086 16.261 16.5938 15.8727 16.5938H3.53351C3.14583 16.5938 2.83043 16.2784 2.83043 15.8907C2.83043 15.5031 3.14583 15.1876 3.53351 15.1876H15.8727C16.261 15.1876 16.5758 14.8729 16.5758 14.4846V12.3753C16.5758 11.987 16.261 11.6722 15.8727 11.6722C15.4844 11.6722 15.1696 11.987 15.1696 12.3753V13.7815H5.64278V1.40716H15.1696V8.85987C15.1696 9.24819 15.4844 9.56296 15.8727 9.56296ZM4.2366 13.7815H3.53351C3.28705 13.7815 3.05049 13.8244 2.83043 13.9024V2.11024C2.83043 1.72256 3.14583 1.40716 3.53351 1.40716H4.2366V13.7815ZM12.5 4.29691C12.8883 4.29691 13.2031 4.61169 13.2031 5C13.2031 5.38831 12.8883 5.70309 12.5 5.70309H7.89478C7.50647 5.70309 7.1917 5.38831 7.1917 5C7.1917 4.61169 7.50647 4.29691 7.89478 4.29691H12.5Z" fill="#FF9F00"/>
<path d="M13.2031 5C13.2031 4.61169 12.8883 4.29691 12.5 4.29691H7.89478C7.50647 4.29691 7.1917 4.61169 7.1917 5C7.1917 5.38831 7.50647 5.70309 7.89478 5.70309H12.5C12.8883 5.70309 13.2031 5.38831 13.2031 5Z" fill="#FF9F00"/>
<path d="M13.2031 4.99999C13.2031 4.61168 12.8883 4.29691 12.5 4.29691H7.8948C7.50648 4.29691 7.19171 4.61168 7.19171 4.99999C7.19171 5.38831 7.50648 5.70308 7.8948 5.70308H12.5C12.8883 5.70308 13.2031 5.38831 13.2031 4.99999Z" fill="white"/>
</g>
<defs>
<clipPath id="clip0_2_1015">
<rect width="18" height="18" fill="white"/>
</clipPath>
</defs>
</svg>
