<svg width="183" height="243" viewBox="0 0 183 243" fill="none" xmlns="http://www.w3.org/2000/svg">
<mask id="mask0_2_965" style="mask-type:alpha" maskUnits="userSpaceOnUse" x="0" y="0" width="183" height="243">
<rect width="183" height="243" rx="10" fill="#C4C4C4"/>
</mask>
<g mask="url(#mask0_2_965)">
<path d="M12.6321 242.272C12.6321 242.272 8.06554 242.191 4.56652 241.906C2.01638 241.702 0 240.888 0 240.888V1.61082C0 1.61082 1.54194 1.32577 3.97346 1.20361C7.53179 1.04072 12.6321 1 12.6321 1V242.272Z" fill="url(#paint0_linear_2_965)"/>
<path d="M181.902 242.272H13.8953V1H97.8392H181.902V242.272Z" fill="url(#paint1_linear_2_965)"/>
<path d="M14.4579 1.04071H13.725V242.272H14.4579V1.04071Z" fill="#F2F2F2"/>
<path d="M13.7657 1.04071H13.0328V242.272H13.7657V1.04071Z" fill="#BFBFBF"/>
<path d="M9.73815 1.44786H95.3601H181.104L182 1H95.3601H8.84244L9.73815 1.44786Z" fill="#F2F2F2"/>
<path d="M9.56777 241.784H95.1898H180.934L181.83 242.232H95.1898H8.67206L9.56777 241.784Z" fill="#A6A6A6"/>
<path d="M52.5557 50.506C52.6957 50.73 52.8217 51.038 52.9337 51.43C53.0737 51.794 53.1437 52.2 53.1437 52.648C53.1437 53.404 52.9617 53.978 52.5977 54.37C52.2617 54.762 51.7857 54.958 51.1697 54.958H45.3737V75.958C45.1497 76.014 44.7997 76.084 44.3237 76.168C43.8477 76.252 43.3577 76.294 42.8537 76.294C41.7897 76.294 41.0337 76.098 40.5857 75.706C40.1377 75.314 39.9137 74.656 39.9137 73.732V54.958H32.8577C32.7177 54.706 32.5777 54.398 32.4377 54.034C32.3257 53.67 32.2697 53.264 32.2697 52.816C32.2697 52.032 32.4377 51.458 32.7737 51.094C33.1377 50.702 33.6277 50.506 34.2437 50.506H52.5557ZM65.4497 44.836C64.8897 45.396 64.2737 45.998 63.6017 46.642C62.9577 47.286 62.2717 47.916 61.5437 48.532C60.8717 48.504 60.3117 48.308 59.8637 47.944C59.4157 47.552 59.1917 47.076 59.1917 46.516C59.1917 46.04 59.3177 45.648 59.5697 45.34C59.8217 45.004 60.2137 44.598 60.7457 44.122L62.4677 42.526C63.0277 42.022 63.5457 41.658 64.0217 41.434C64.4977 41.21 65.0017 41.098 65.5337 41.098C66.1217 41.098 66.6397 41.21 67.0877 41.434C67.5637 41.658 68.0397 42.022 68.5157 42.526L71.9597 46.18C71.9597 46.908 71.7497 47.468 71.3297 47.86C70.9377 48.252 70.4057 48.448 69.7337 48.448C69.2857 48.448 68.8797 48.308 68.5157 48.028C68.1517 47.748 67.6897 47.314 67.1297 46.726L65.4497 44.836ZM69.8597 69.994H60.4517C60.1437 71.03 59.8077 72.108 59.4437 73.228C59.1077 74.348 58.8277 75.272 58.6037 76C58.3237 76.112 58.0157 76.21 57.6797 76.294C57.3717 76.378 56.9797 76.42 56.5037 76.42C55.5517 76.42 54.8097 76.238 54.2777 75.874C53.7457 75.482 53.4797 74.936 53.4797 74.236C53.4797 73.9 53.5217 73.578 53.6057 73.27C53.7177 72.934 53.8437 72.556 53.9837 72.136C54.2077 71.352 54.5017 70.414 54.8657 69.322C55.2577 68.202 55.6637 66.998 56.0837 65.71C56.5317 64.394 57.0077 63.05 57.5117 61.678C58.0157 60.278 58.4917 58.934 58.9397 57.646C59.4157 56.33 59.8637 55.112 60.2837 53.992C60.7317 52.844 61.1097 51.864 61.4177 51.052C61.7817 50.856 62.3137 50.66 63.0137 50.464C63.7417 50.268 64.4697 50.17 65.1977 50.17C66.1777 50.17 67.0737 50.324 67.8857 50.632C68.6977 50.912 69.2157 51.374 69.4397 52.018C69.9997 53.558 70.6157 55.336 71.2877 57.352C71.9597 59.34 72.6317 61.398 73.3037 63.526C74.0037 65.654 74.6757 67.74 75.3197 69.784C75.9637 71.828 76.5377 73.662 77.0417 75.286C76.7617 75.594 76.3697 75.846 75.8657 76.042C75.3897 76.266 74.8157 76.378 74.1437 76.378C73.1637 76.378 72.4637 76.21 72.0437 75.874C71.6517 75.51 71.3437 74.95 71.1197 74.194L69.8597 69.994ZM65.1557 54.958C64.9037 55.658 64.6237 56.442 64.3157 57.31C64.0357 58.178 63.7277 59.088 63.3917 60.04C63.0837 60.964 62.7617 61.916 62.4257 62.896C62.0897 63.848 61.7677 64.786 61.4597 65.71H68.7677L65.3657 54.958H65.1557ZM97.3425 69.574C97.0625 69.798 96.6985 69.98 96.2505 70.12C95.8025 70.26 95.2845 70.33 94.6965 70.33C93.9685 70.33 93.3525 70.246 92.8485 70.078C92.3725 69.882 92.0365 69.546 91.8405 69.07C90.6925 66.214 89.7265 63.778 88.9425 61.762C88.1585 59.746 87.5285 58.024 87.0525 56.596H86.8425C86.7585 58.472 86.6745 60.194 86.5905 61.762C86.5345 63.33 86.4785 64.87 86.4225 66.382C86.3665 67.866 86.2965 69.378 86.2125 70.918C86.1565 72.458 86.0725 74.124 85.9605 75.916C85.6805 76 85.3305 76.084 84.9105 76.168C84.4905 76.252 84.0425 76.294 83.5665 76.294C81.6905 76.294 80.7525 75.594 80.7525 74.194C80.7525 73.746 80.7665 73.06 80.7945 72.136C80.8505 71.184 80.9065 70.092 80.9625 68.86C81.0465 67.6 81.1305 66.228 81.2145 64.744C81.3265 63.26 81.4245 61.762 81.5085 60.25C81.6205 58.738 81.7325 57.254 81.8445 55.798C81.9565 54.314 82.0545 52.942 82.1385 51.682C82.3625 51.402 82.7685 51.122 83.3565 50.842C83.9725 50.534 84.7565 50.38 85.7085 50.38C86.7725 50.38 87.6265 50.562 88.2705 50.926C88.9425 51.262 89.4465 51.836 89.7825 52.648C90.1465 53.516 90.5245 54.468 90.9165 55.504C91.3365 56.54 91.7565 57.604 92.1765 58.696C92.5965 59.788 93.0025 60.866 93.3945 61.93C93.8145 62.966 94.2065 63.946 94.5705 64.87H94.7385C95.6905 62.238 96.6285 59.69 97.5525 57.226C98.5045 54.762 99.3305 52.676 100.03 50.968C100.366 50.8 100.8 50.66 101.332 50.548C101.864 50.436 102.41 50.38 102.97 50.38C104.006 50.38 104.832 50.534 105.448 50.842C106.064 51.15 106.442 51.612 106.582 52.228C106.694 52.76 106.82 53.614 106.96 54.79C107.1 55.938 107.24 57.254 107.38 58.738C107.52 60.222 107.66 61.804 107.8 63.484C107.94 65.164 108.066 66.788 108.178 68.356C108.29 69.896 108.388 71.31 108.472 72.598C108.556 73.886 108.612 74.894 108.64 75.622C108.276 75.846 107.884 76.014 107.464 76.126C107.072 76.238 106.582 76.294 105.994 76.294C105.266 76.294 104.622 76.154 104.062 75.874C103.53 75.566 103.236 75.006 103.18 74.194C103.068 72.43 102.97 70.708 102.886 69.028C102.802 67.32 102.732 65.71 102.676 64.198C102.62 62.686 102.564 61.3 102.508 60.04C102.452 58.752 102.41 57.646 102.382 56.722H102.172C101.724 58.038 101.108 59.718 100.324 61.762C99.5405 63.778 98.5465 66.382 97.3425 69.574ZM125.703 76.084C124.807 76.084 124.093 75.818 123.561 75.286C123.057 74.754 122.805 74.04 122.805 73.144V50.506C123.029 50.45 123.379 50.38 123.855 50.296C124.359 50.212 124.849 50.17 125.325 50.17C126.333 50.17 127.075 50.352 127.551 50.716C128.027 51.08 128.265 51.752 128.265 52.732V71.59H139.059C139.199 71.814 139.339 72.122 139.479 72.514C139.619 72.878 139.689 73.284 139.689 73.732C139.689 74.488 139.507 75.076 139.143 75.496C138.807 75.888 138.331 76.084 137.715 76.084H125.703ZM160.834 52.606C160.834 52.914 160.68 53.432 160.372 54.16C160.064 54.86 159.588 55.798 158.944 56.974C158.3 58.15 157.474 59.578 156.466 61.258C155.458 62.938 154.24 64.884 152.812 67.096V75.958C152.588 76.014 152.238 76.084 151.762 76.168C151.314 76.252 150.838 76.294 150.334 76.294C149.27 76.294 148.528 76.098 148.108 75.706C147.688 75.314 147.478 74.67 147.478 73.774V67.138C146.722 66.046 145.924 64.842 145.084 63.526C144.244 62.21 143.418 60.88 142.606 59.536C141.794 58.192 141.038 56.876 140.338 55.588C139.638 54.272 139.05 53.082 138.574 52.018C138.798 51.598 139.148 51.22 139.624 50.884C140.1 50.52 140.702 50.338 141.43 50.338C142.242 50.338 142.886 50.52 143.362 50.884C143.866 51.248 144.356 51.878 144.832 52.774C145.056 53.166 145.406 53.824 145.882 54.748C146.386 55.644 146.904 56.596 147.436 57.604C147.996 58.612 148.514 59.564 148.99 60.46C149.494 61.356 149.844 61.972 150.04 62.308H150.25C150.782 61.272 151.286 60.292 151.762 59.368C152.238 58.416 152.7 57.492 153.148 56.596C153.596 55.672 154.03 54.748 154.45 53.824C154.898 52.872 155.36 51.892 155.836 50.884C156.172 50.688 156.55 50.548 156.97 50.464C157.418 50.38 157.838 50.338 158.23 50.338C158.986 50.338 159.602 50.534 160.078 50.926C160.582 51.318 160.834 51.878 160.834 52.606ZM152.644 41.014C153.54 41.014 154.24 41.238 154.744 41.686C155.248 42.106 155.5 42.638 155.5 43.282C155.5 43.758 155.388 44.178 155.164 44.542C154.968 44.878 154.576 45.256 153.988 45.676L150.082 48.448C149.27 48.42 148.64 48.224 148.192 47.86C147.744 47.496 147.52 47.062 147.52 46.558C147.52 46.25 147.576 45.97 147.688 45.718C147.8 45.466 148.01 45.2 148.318 44.92L152.644 41.014ZM64.486 115.958C64.234 116.014 63.87 116.084 63.394 116.168C62.946 116.252 62.456 116.294 61.924 116.294C60.86 116.294 60.104 116.098 59.656 115.706C59.236 115.314 59.026 114.656 59.026 113.732V90.506C59.25 90.45 59.6 90.38 60.076 90.296C60.58 90.212 61.07 90.17 61.546 90.17C62.554 90.17 63.296 90.352 63.772 90.716C64.248 91.08 64.486 91.752 64.486 92.732V101.006H74.986V90.506C75.21 90.45 75.56 90.38 76.036 90.296C76.54 90.212 77.03 90.17 77.506 90.17C78.514 90.17 79.256 90.366 79.732 90.758C80.208 91.122 80.446 91.794 80.446 92.774V115.958C80.194 116.014 79.83 116.084 79.354 116.168C78.906 116.252 78.416 116.294 77.884 116.294C76.82 116.294 76.064 116.098 75.616 115.706C75.196 115.314 74.986 114.656 74.986 113.732V105.374H64.486V115.958ZM111.026 103.232C111.026 105.416 110.704 107.348 110.06 109.028C109.416 110.708 108.52 112.122 107.372 113.27C106.252 114.39 104.908 115.244 103.34 115.832C101.772 116.392 100.078 116.672 98.2576 116.672C96.4376 116.672 94.7436 116.392 93.1756 115.832C91.6076 115.244 90.2496 114.39 89.1016 113.27C87.9816 112.122 87.0996 110.708 86.4556 109.028C85.8116 107.348 85.4896 105.416 85.4896 103.232C85.4896 101.048 85.8116 99.13 86.4556 97.478C87.1276 95.798 88.0376 94.398 89.1856 93.278C90.3336 92.13 91.6776 91.276 93.2176 90.716C94.7856 90.128 96.4656 89.834 98.2576 89.834C100.05 89.834 101.716 90.128 103.256 90.716C104.824 91.276 106.182 92.13 107.33 93.278C108.478 94.398 109.374 95.798 110.018 97.478C110.69 99.13 111.026 101.048 111.026 103.232ZM105.44 103.232C105.44 100.32 104.782 98.108 103.466 96.596C102.178 95.056 100.442 94.286 98.2576 94.286C96.1016 94.286 94.3656 95.042 93.0496 96.554C91.7616 98.066 91.1176 100.292 91.1176 103.232C91.1176 106.172 91.7616 108.398 93.0496 109.91C94.3376 111.422 96.0736 112.178 98.2576 112.178C100.442 112.178 102.178 111.422 103.466 109.91C104.782 108.398 105.44 106.172 105.44 103.232ZM101.282 121.712C101.282 122.524 101.002 123.21 100.442 123.77C99.9096 124.33 99.1956 124.61 98.2996 124.61C97.4036 124.61 96.6756 124.33 96.1156 123.77C95.5836 123.21 95.3176 122.524 95.3176 121.712C95.3176 120.872 95.5836 120.172 96.1156 119.612C96.6756 119.08 97.4036 118.814 98.2996 118.814C99.1956 118.814 99.9096 119.08 100.442 119.612C101.002 120.172 101.282 120.872 101.282 121.712ZM135.44 93.782C135.44 94.342 135.286 94.832 134.978 95.252C134.67 95.644 134.32 95.952 133.928 96.176C133.2 95.7 132.388 95.266 131.492 94.874C130.596 94.482 129.49 94.286 128.174 94.286C125.794 94.286 123.89 95.056 122.462 96.596C121.062 98.136 120.362 100.362 120.362 103.274C120.362 106.242 121.09 108.468 122.546 109.952C124.002 111.436 125.962 112.178 128.426 112.178C129.714 112.178 130.82 112.01 131.744 111.674C132.696 111.31 133.536 110.89 134.264 110.414C134.656 110.666 134.978 111.016 135.23 111.464C135.482 111.884 135.608 112.374 135.608 112.934C135.608 113.41 135.482 113.844 135.23 114.236C134.978 114.628 134.558 114.978 133.97 115.286C133.41 115.622 132.612 115.93 131.576 116.21C130.568 116.518 129.308 116.672 127.796 116.672C125.948 116.672 124.226 116.406 122.63 115.874C121.062 115.314 119.69 114.488 118.514 113.396C117.338 112.276 116.414 110.876 115.742 109.196C115.07 107.516 114.734 105.542 114.734 103.274C114.734 101.09 115.07 99.172 115.742 97.52C116.414 95.84 117.324 94.44 118.472 93.32C119.648 92.172 121.006 91.304 122.546 90.716C124.114 90.128 125.766 89.834 127.502 89.834C128.706 89.834 129.798 89.946 130.778 90.17C131.758 90.366 132.598 90.646 133.298 91.01C133.998 91.374 134.53 91.794 134.894 92.27C135.258 92.746 135.44 93.25 135.44 93.782Z" fill="#0011AB"/>
<g clip-path="url(#clip0_2_965)">
<path d="M127.895 176.586L111.833 183.469L93.4773 176.586L88.8883 158.23L93.4773 142.112C93.7954 141.682 94.1442 141.27 94.5251 140.882C96.7033 138.653 99.5898 137.426 102.655 137.426C105.721 137.426 108.607 138.653 110.785 140.882C112.941 143.086 114.128 145.988 114.128 149.052C114.128 149.128 114.126 149.205 114.125 149.281C119.356 150.346 123.306 154.982 123.306 160.524C123.306 162.62 122.723 164.648 121.649 166.41C122.925 167.062 124.077 167.949 125.037 169.037C126.881 171.12 127.895 173.8 127.895 176.586Z" fill="#FF8080"/>
<path d="M95.7718 194.942L93.4773 211.06C93.1591 211.49 92.8103 211.901 92.4294 212.29C90.2512 214.518 87.3647 215.745 84.2993 215.745C81.2338 215.745 78.3473 214.518 76.1691 212.29C74.0138 210.085 72.8268 207.184 72.8268 204.12C72.8268 204.043 72.8283 203.967 72.8299 203.89C67.5984 202.826 63.6488 198.189 63.6488 192.647C63.6488 190.552 64.2316 188.523 65.3054 186.759C64.0297 186.109 62.8779 185.222 61.9172 184.135C60.074 182.051 59.0598 179.37 59.0598 176.586L75.1213 167.408L93.4773 176.586L95.7718 194.942Z" fill="#474F54"/>
<path d="M98.0662 162.819C98.0662 165.353 96.0119 167.408 93.4773 167.408V176.586H84.2993C84.2993 174.051 82.2449 171.997 79.7103 171.997C77.1756 171.997 75.1213 174.051 75.1213 176.586H59.0598C59.0598 173.8 60.074 171.12 61.9172 169.037C62.8779 167.949 64.0297 167.062 65.3054 166.41C64.2316 164.648 63.6488 162.62 63.6488 160.524C63.6488 154.982 67.5984 150.346 72.8299 149.281C72.8283 149.205 72.8268 149.128 72.8268 149.052C72.8268 145.988 74.0138 143.086 76.1691 140.882C78.3473 138.653 81.2338 137.426 84.2993 137.426C87.3647 137.426 90.2512 138.653 92.4294 140.882C92.8103 141.27 93.1591 141.682 93.4773 142.112V158.23C96.0119 158.23 98.0662 160.284 98.0662 162.819Z" fill="#64E1DC"/>
<path d="M127.895 176.586C127.895 179.37 126.881 182.051 125.037 184.135C124.077 185.222 122.925 186.109 121.649 186.759C122.723 188.523 123.306 190.552 123.306 192.647C123.306 198.189 119.356 202.826 114.125 203.89C114.126 203.967 114.128 204.043 114.128 204.12C114.128 207.184 112.941 210.085 110.785 212.29C108.607 214.518 105.721 215.745 102.655 215.745C99.5898 215.745 96.7033 214.518 94.5251 212.29C94.1442 211.901 93.7954 211.49 93.4773 211.06V194.942C90.9426 194.942 88.8883 192.887 88.8883 190.353C88.8883 187.818 90.9426 185.764 93.4773 185.764V176.586H102.655C102.655 179.12 104.71 181.175 107.244 181.175C109.779 181.175 111.833 179.12 111.833 176.586H127.895Z" fill="#FFBB33"/>
</g>
<path d="M80.325 24.316L77.781 15.916H78.801L80.421 21.448C80.509 21.744 80.581 22.016 80.637 22.264C80.701 22.512 80.757 22.756 80.805 22.996C80.877 22.748 80.941 22.54 80.997 22.372C81.053 22.196 81.105 22.036 81.153 21.892C81.209 21.748 81.273 21.584 81.345 21.4L82.761 17.824H83.649L85.089 21.448C85.201 21.72 85.297 21.976 85.377 22.216C85.465 22.448 85.549 22.7 85.629 22.972C85.669 22.78 85.701 22.624 85.725 22.504C85.749 22.376 85.781 22.236 85.821 22.084C85.869 21.924 85.937 21.692 86.025 21.388L87.645 15.916H88.665L86.109 24.316H85.329L83.169 19.192L81.093 24.316H80.325ZM90.4174 16.696C90.1934 16.696 90.0214 16.64 89.9014 16.528C89.7814 16.408 89.7214 16.244 89.7214 16.036C89.7214 15.836 89.7814 15.676 89.9014 15.556C90.0214 15.436 90.1934 15.376 90.4174 15.376C90.6334 15.376 90.8014 15.436 90.9214 15.556C91.0414 15.668 91.1014 15.828 91.1014 16.036C91.1014 16.236 91.0414 16.396 90.9214 16.516C90.8014 16.636 90.6334 16.696 90.4174 16.696ZM89.9614 24.316V18.04H90.8854V24.316H89.9614ZM92.7365 24.316V15.436H93.6485V24.316H92.7365ZM95.9955 16.696C95.7715 16.696 95.5995 16.64 95.4795 16.528C95.3595 16.408 95.2995 16.244 95.2995 16.036C95.2995 15.836 95.3595 15.676 95.4795 15.556C95.5995 15.436 95.7715 15.376 95.9955 15.376C96.2115 15.376 96.3795 15.436 96.4995 15.556C96.6195 15.668 96.6795 15.828 96.6795 16.036C96.6795 16.236 96.6195 16.396 96.4995 16.516C96.3795 16.636 96.2115 16.696 95.9955 16.696ZM95.5395 24.316V18.04H96.4635V24.316H95.5395ZM100.739 24.436C100.195 24.436 99.7026 24.296 99.2626 24.016C98.8226 23.728 98.4746 23.34 98.2186 22.852C97.9626 22.356 97.8346 21.796 97.8346 21.172C97.8346 20.54 97.9666 19.98 98.2306 19.492C98.4946 18.996 98.8506 18.608 99.2986 18.328C99.7466 18.048 100.247 17.908 100.799 17.908C101.303 17.908 101.751 18.024 102.143 18.256C102.543 18.488 102.847 18.788 103.055 19.156L103.079 18.04H103.991V24.316H103.067V23.2C102.843 23.552 102.523 23.848 102.107 24.088C101.691 24.32 101.235 24.436 100.739 24.436ZM100.943 23.56C101.359 23.56 101.731 23.46 102.059 23.26C102.387 23.052 102.643 22.768 102.827 22.408C103.019 22.048 103.115 21.632 103.115 21.16C103.115 20.704 103.019 20.296 102.827 19.936C102.643 19.576 102.387 19.296 102.059 19.096C101.731 18.888 101.359 18.784 100.943 18.784C100.519 18.784 100.143 18.888 99.8146 19.096C99.4946 19.296 99.2426 19.576 99.0586 19.936C98.8746 20.296 98.7826 20.704 98.7826 21.16C98.7826 21.624 98.8746 22.04 99.0586 22.408C99.2426 22.768 99.4946 23.052 99.8146 23.26C100.143 23.46 100.519 23.56 100.943 23.56ZM105.72 24.316V18.04H106.632L106.644 19.12C106.852 18.76 107.148 18.472 107.532 18.256C107.916 18.032 108.332 17.92 108.78 17.92C109.228 17.92 109.608 18.024 109.92 18.232C110.24 18.44 110.48 18.796 110.64 19.3C110.76 19.052 110.936 18.824 111.168 18.616C111.4 18.408 111.664 18.24 111.96 18.112C112.264 17.984 112.584 17.92 112.92 17.92C113.584 17.92 114.088 18.136 114.432 18.568C114.784 18.992 114.96 19.648 114.96 20.536V24.316H114.036V20.584C114.036 19.968 113.92 19.516 113.688 19.228C113.456 18.932 113.108 18.784 112.644 18.784C112.284 18.784 111.964 18.864 111.684 19.024C111.404 19.184 111.184 19.396 111.024 19.66C110.872 19.924 110.796 20.212 110.796 20.524V24.316H109.872V20.572C109.872 19.38 109.408 18.784 108.48 18.784C108.128 18.784 107.812 18.864 107.532 19.024C107.252 19.176 107.032 19.384 106.872 19.648C106.72 19.912 106.644 20.2 106.644 20.512V24.316H105.72Z" fill="black"/>
</g>
<defs>
<linearGradient id="paint0_linear_2_965" x1="-0.0097261" y1="121.648" x2="12.6396" y2="121.648" gradientUnits="userSpaceOnUse">
<stop stop-color="#FFD400"/>
<stop offset="1" stop-color="#FF9F00"/>
</linearGradient>
<linearGradient id="paint1_linear_2_965" x1="169.577" y1="249.621" x2="19.5985" y2="-2.37988" gradientUnits="userSpaceOnUse">
<stop stop-color="#FF9F00"/>
<stop offset="1" stop-color="#FFD400"/>
</linearGradient>
<clipPath id="clip0_2_965">
<rect width="78.3188" height="78.3188" fill="white" transform="translate(54.3179 137.426)"/>
</clipPath>
</defs>
</svg>
