<svg width="18" height="18" viewBox="0 0 18 18" fill="none" xmlns="http://www.w3.org/2000/svg">
<path d="M16.0962 1.90857H7.0986C6.0489 1.90857 5.19485 2.76255 5.19485 3.81231V6.09683H1.90374C0.853979 6.09676 0 6.95077 0 8.0005V11.9495C0 12.8139 0.579022 13.5456 1.36968 13.777V15.5574C1.36968 15.766 1.49115 15.9556 1.68071 16.0426C1.75201 16.0754 1.82809 16.0914 1.9036 16.0914C2.02886 16.0914 2.15275 16.0474 2.25147 15.9627L4.70945 13.8533H9.21528C10.265 13.8533 11.119 12.9992 11.119 11.9495V10.7871H12.8351L15.5036 13.2585C15.6044 13.3518 15.7345 13.4007 15.8666 13.4007C15.9388 13.4007 16.0115 13.3861 16.0803 13.356C16.2748 13.2711 16.4005 13.0789 16.4005 12.8667V10.7628C17.3061 10.6167 18 9.82953 18 8.88334V3.81231C18 2.76258 17.146 1.90857 16.0962 1.90857ZM10.0509 11.9495C10.0509 12.4103 9.67607 12.7852 9.21531 12.7852H4.51177C4.38415 12.7852 4.26082 12.8308 4.16397 12.914L2.43776 14.3954V13.3192C2.43776 13.0243 2.19867 12.7852 1.90374 12.7852C1.44295 12.7852 1.06808 12.4103 1.06808 11.9495V8.0005C1.06808 7.53974 1.44295 7.16484 1.90374 7.16484H5.19485V8.88337C5.19485 9.93307 6.04887 10.7871 7.0986 10.7871H10.0509V11.9495ZM16.9319 8.88337C16.9319 9.34413 16.557 9.71904 16.0962 9.71904H15.8664C15.5715 9.71904 15.3324 9.95813 15.3324 10.2531V11.6442L13.4072 9.86121C13.3085 9.76977 13.1789 9.71896 13.0444 9.71896H7.0986C6.63784 9.71896 6.26293 9.3441 6.26293 8.8833V3.81231C6.26293 3.35155 6.6378 2.97665 7.0986 2.97665H16.0962C16.557 2.97665 16.9319 3.35152 16.9319 3.81231V8.88337Z" fill="black"/>
<path d="M14.6964 4.8345H8.49844C8.20351 4.8345 7.96442 5.0736 7.96442 5.36853C7.96442 5.66345 8.20351 5.90255 8.49844 5.90255H14.6964C14.9913 5.90255 15.2304 5.66345 15.2304 5.36853C15.2304 5.0736 14.9913 4.8345 14.6964 4.8345Z" fill="black"/>
<path d="M14.6964 7.04184H8.49844C8.20351 7.04184 7.96442 7.28094 7.96442 7.57586C7.96442 7.87079 8.20351 8.10989 8.49844 8.10989H14.6964C14.9913 8.10989 15.2304 7.87079 15.2304 7.57586C15.2304 7.28094 14.9913 7.04184 14.6964 7.04184Z" fill="black"/>
</svg>
