<svg width="18" height="18" viewBox="0 0 18 18" fill="none" xmlns="http://www.w3.org/2000/svg">
<g clip-path="url(#clip0_2_1070)">
<path d="M5.15 13.125C5.15 15.8682 7.38177 18.1 10.125 18.1C12.8682 18.1 15.1 15.8682 15.1 13.125V10.875C15.1 10.6128 14.8872 10.4 14.625 10.4H5.625C5.36277 10.4 5.15 10.6128 5.15 10.875V13.125ZM6.1 13.125V11.35H14.15V13.125C14.15 15.3445 12.3438 17.15 10.125 17.15C7.90621 17.15 6.1 15.3445 6.1 13.125Z" fill="black" stroke="black" stroke-width="0.2"/>
<path d="M16.8442 13.8492L16.8441 13.8492L16.8424 13.8509C16.6546 14.0435 16.4001 14.15 16.125 14.15H14.55C14.2878 14.15 14.075 14.3628 14.075 14.625C14.075 14.8872 14.2878 15.1 14.55 15.1H16.125C16.6571 15.1 17.1538 14.8927 17.515 14.5224C17.8924 14.154 18.1 13.6574 18.1 13.125C18.1 12.0363 17.2145 11.15 16.125 11.15H14.8125C14.5503 11.15 14.3375 11.3628 14.3375 11.625C14.3375 11.8872 14.5503 12.1 14.8125 12.1H16.125C16.69 12.1 17.15 12.56 17.15 13.125C17.15 13.4003 17.0439 13.6543 16.8442 13.8492Z" fill="black" stroke="black" stroke-width="0.2"/>
<path d="M8.04048 8.24035L8.0405 8.24034C8.25855 8.08201 8.35096 7.89866 8.33566 7.72793L8.33564 7.72776C8.31819 7.52919 8.15746 7.32318 7.85623 7.17753L7.89975 7.08752L7.85638 7.17761C7.2696 6.89517 6.89266 6.41599 6.84314 5.85581L6.84314 5.8558C6.79678 5.33122 7.05263 4.83428 7.52754 4.4903C7.52756 4.49029 7.52758 4.49027 7.5276 4.49026L7.58625 4.57125C7.7535 4.44975 7.9875 4.48725 8.10975 4.65525L8.04048 8.24035ZM8.04048 8.24035C7.82895 8.39402 7.78024 8.69022 7.93408 8.90316L8.04048 8.24035ZM8.09925 8.32126C8.33476 8.15026 8.45476 7.9365 8.43526 7.719L8.01525 8.84476C7.89375 8.67676 7.932 8.44276 8.09925 8.32126Z" fill="black" stroke="black" stroke-width="0.2"/>
<path d="M11.4623 7.08749L11.4187 7.17752C11.72 7.32316 11.8807 7.52918 11.8981 7.72775L11.8982 7.72792C11.9135 7.89865 11.821 8.08199 11.603 8.24032L11.603 8.24034C11.3914 8.39401 11.3427 8.69022 11.4966 8.90317C11.5891 9.03183 11.7355 9.09999 11.8815 9.09999C11.9777 9.09999 12.0755 9.07046 12.1596 9.00993L12.1599 9.00973C12.6349 8.66573 12.8907 8.16876 12.8444 7.64345L12.8444 7.64344C12.7948 7.08326 12.4179 6.60407 11.8311 6.32163L11.7878 6.41174M11.4623 7.08749L11.4189 7.1776C10.8321 6.89516 10.4552 6.41597 10.4056 5.85579L10.4056 5.85578C10.3593 5.33047 10.6151 4.8335 11.0901 4.4895L11.0902 4.48946C11.3029 4.33562 11.5994 4.3831 11.7533 4.59588C11.9073 4.80885 11.8586 5.10518 11.647 5.25889L11.647 5.25891C11.429 5.41724 11.3365 5.60058 11.3519 5.77131L11.3519 5.77148C11.3693 5.97005 11.5301 6.17607 11.8313 6.32171L11.7878 6.41174M11.4623 7.08749C10.8998 6.81674 10.551 6.36449 10.5052 5.84699C10.4625 5.36249 10.6973 4.89749 11.1488 4.57049C11.3168 4.44899 11.5508 4.48649 11.6723 4.65449C11.7938 4.82249 11.7555 5.05649 11.5883 5.17799C11.3528 5.34899 11.2328 5.56274 11.2523 5.78024C11.274 6.02774 11.4698 6.25799 11.7878 6.41174M11.4623 7.08749C11.7803 7.24124 11.976 7.47149 11.9978 7.71899C12.0173 7.93649 11.8973 8.15024 11.6618 8.32124C11.4945 8.44274 11.4563 8.67674 11.5778 8.84474C11.6505 8.94599 11.766 8.99999 11.8815 8.99999C11.9573 8.99999 12.0345 8.97674 12.1013 8.92874L12.7448 7.65224C12.699 7.13474 12.3503 6.68249 11.7878 6.41174" fill="black" stroke="black" stroke-width="0.2"/>
<path d="M5.25 18.1H15C15.2622 18.1 15.475 17.8872 15.475 17.625C15.475 17.3628 15.2622 17.15 15 17.15H5.25C4.98777 17.15 4.775 17.3628 4.775 17.625C4.775 17.8872 4.98777 18.1 5.25 18.1Z" fill="black" stroke="black" stroke-width="0.2"/>
<path d="M9.25875 2.14649L9.32778 2.21883C10.2627 1.32667 11.3334 0.871607 12.5897 0.848191C13.8497 0.824704 15.3035 1.23541 17.0002 2.0903L17.0005 2.09043C17.0911 2.13574 17.15 2.23085 17.15 2.33249V9.375C17.15 9.63722 17.3628 9.85 17.625 9.85C17.8872 9.85 18.1 9.63722 18.1 9.375V2.33249C18.1 1.8741 17.8358 1.44574 17.4262 1.24119C15.627 0.334588 14.0466 -0.12129 12.6432 -0.115292C11.2649 -0.109401 10.0634 0.342001 9.00002 1.2373C7.93698 0.341625 6.73529 -0.109588 5.35692 -0.115385C3.95341 -0.121288 2.37311 0.334558 0.574669 1.24035C0.164311 1.44558 -0.1 1.87395 -0.1 2.33249V14.415C-0.1 14.7895 0.0674476 15.1392 0.358844 15.3734L0.35903 15.3736C0.579241 15.5498 0.847266 15.643 1.12425 15.643C1.21388 15.643 1.30549 15.6332 1.39447 15.6146L1.39447 15.6147L1.39653 15.6142C2.27626 15.4107 2.98508 15.2802 3.62624 15.2028L3.62652 15.2027C3.88727 15.1705 4.07264 14.9342 4.04128 14.6738L4.04124 14.6735C4.00893 14.4122 3.75938 14.2267 3.51296 14.2587C2.83443 14.341 2.09378 14.4767 1.18651 14.6864C1.07381 14.7104 0.992412 14.6636 0.953469 14.6324C0.887639 14.5797 0.85 14.5007 0.85 14.415V2.33249C0.85 2.23071 0.908975 2.13503 1.00001 2.08979L1.00046 2.08956C2.69718 1.23542 4.15087 0.824891 5.41079 0.848378C6.66684 0.871793 7.73755 1.3266 8.67275 2.21864C8.8548 2.39463 9.1464 2.39452 9.32832 2.21832L9.25875 2.14649ZM9.25875 2.14649C9.1155 2.28524 8.88525 2.28524 8.742 2.14649L9 1.36874C11.124 -0.465762 13.7985 -0.474762 17.3812 1.33049C17.757 1.51799 18 1.91174 18 2.33249V9.375C18 9.582 17.832 9.75 17.625 9.75C17.418 9.75 17.25 9.582 17.25 9.375V2.33249C17.25 2.19299 17.1697 2.06324 17.0452 2.00099C13.6365 0.283489 11.163 0.329239 9.25875 2.14649Z" fill="black" stroke="black" stroke-width="0.2"/>
<path d="M8.525 3.375C8.525 3.63723 8.73777 3.85 9 3.85C9.26223 3.85 9.47501 3.63723 9.47501 3.375V1.875C9.47501 1.61277 9.26223 1.4 9 1.4C8.73777 1.4 8.525 1.61277 8.525 1.875V3.375Z" fill="black" stroke="black" stroke-width="0.2"/>
</g>
<defs>
<clipPath id="clip0_2_1070">
<rect width="18" height="18" fill="white"/>
</clipPath>
</defs>
</svg>
